<?xml version="1.0" encoding="utf-8"?>
<!-- Generator: Adobe Illustrator 16.0.0, SVG Export Plug-In . SVG Version: 6.00 Build 0)  -->
<!DOCTYPE svg PUBLIC "-//W3C//DTD SVG 1.1//EN" "http://www.w3.org/Graphics/SVG/1.1/DTD/svg11.dtd">
<svg version="1.1" id="Layer_1" xmlns="http://www.w3.org/2000/svg" xmlns:xlink="http://www.w3.org/1999/xlink" x="0px" y="0px"
	 width="482px" height="305px" viewBox="0 0 482 305" style="enable-background:new 0 0 482 305;" xml:space="preserve">
<g>
	<g>
		<defs>
			<rect id="SVGID_1_" x="-11" y="-74" width="504" height="504"/>
		</defs>
		<clipPath id="SVGID_2_">
			<use xlink:href="#SVGID_1_"  style="overflow:visible;"/>
		</clipPath>
		<g style="clip-path:url(#SVGID_2_);">
			<path style="fill:none;stroke:#000000;stroke-width:2;" d="M178.519531,74.6875v-2.88916
				c1.38916-0.189453,2.320801-0.536621,2.794434-1.041992c0.473633-0.504883,0.710449-1.452148,0.710449-2.841797V13.683594
				c0-1.38916-0.245117-2.344727-0.734375-2.865234c-0.489746-0.521484-1.396973-0.860352-2.723145-1.018555l-0.047363-2.936523
				h12.503906l37.274902,32.728027V13.683594c0-1.420898-0.229492-2.375488-0.687012-2.865234
				c-0.458008-0.489258-1.365723-0.829102-2.723145-1.018555V6.863281h13.593262l-0.047363,2.936523
				c-1.35791,0.189453-2.257812,0.513672-2.699707,0.970703c-0.442383,0.458496-0.663086,1.429199-0.663086,2.913086v54.230957
				c0,1.420898,0.228516,2.376465,0.686523,2.865723c0.45752,0.489746,1.365723,0.828613,2.723633,1.018066v2.88916h-13.593262
				v-2.88916c1.357422-0.189453,2.265137-0.52832,2.723145-1.018066c0.45752-0.489258,0.687012-1.444824,0.687012-2.865723
				V51.384766l-39.595703-34.622559v51.152344c0,1.420898,0.228516,2.376465,0.687012,2.865723
				c0.457031,0.489746,1.365234,0.828613,2.723145,1.018066v2.88916H178.519531z"/>
			<path style="fill:none;stroke:#000000;stroke-width:2;" d="M240.142578,41.012207
				c0-5.051758,0.883789-9.851562,2.652344-14.398438c1.767578-4.546875,4.27832-8.446289,7.53125-11.69873
				c3.09375-3.094238,6.661133-5.415039,10.703125-6.962402c4.041992-1.546875,8.556641-2.320801,13.546875-2.320801
				c4.988281,0,9.496094,0.773926,13.521484,2.320801c4.026367,1.547363,7.601562,3.868164,10.728516,6.962402
				c3.220703,3.252441,5.707031,7.144531,7.458984,11.674805c1.75293,4.531738,2.628906,9.338867,2.628906,14.422363
				c0,5.115234-0.875977,9.922363-2.628906,14.422363c-1.751953,4.499023-4.238281,8.359375-7.458984,11.580078
				c-3.126953,3.125977-6.695312,5.462891-10.705078,7.009766s-8.525391,2.320801-13.544922,2.320801
				c-4.990234,0-9.504883-0.773926-13.546875-2.320801s-7.609375-3.883789-10.703125-7.009766
				c-3.25293-3.251953-5.763672-7.12793-7.53125-11.62793C241.026367,50.887695,240.142578,46.096191,240.142578,41.012207z
				 M249.709961,41.012207c0,8.999023,2.217773,16.087891,6.654297,21.266113
				c4.436523,5.178711,10.506836,7.767578,18.211914,7.767578c7.671875,0,13.726562-2.588867,18.163086-7.767578
				c4.436523-5.178223,6.655273-12.26709,6.655273-21.266113s-2.21875-16.095215-6.655273-21.289551
				c-4.436523-5.193848-10.491211-7.791504-18.163086-7.791504c-7.673828,0-13.736328,2.597656-18.1875,7.791504
				C251.935547,24.916992,249.709961,32.013184,249.709961,41.012207z"/>
		</g>
	</g>
	<g>
		<path d="M178.519531,74.6875v-2.88916c1.38916-0.189453,2.320801-0.536621,2.794434-1.041992
			c0.473633-0.504883,0.710449-1.452148,0.710449-2.841797V13.683594c0-1.38916-0.245117-2.344727-0.734375-2.865234
			c-0.489746-0.521484-1.396973-0.860352-2.723145-1.018555l-0.047363-2.936523h12.503906l37.274902,32.728027V13.683594
			c0-1.420898-0.229492-2.375488-0.687012-2.865234c-0.458008-0.489258-1.365723-0.829102-2.723145-1.018555V6.863281h13.593262
			l-0.047363,2.936523c-1.35791,0.189453-2.257812,0.513672-2.699707,0.970703
			c-0.442383,0.458496-0.663086,1.429199-0.663086,2.913086v54.230957c0,1.420898,0.228516,2.376465,0.686523,2.865723
			c0.45752,0.489746,1.365723,0.828613,2.723633,1.018066v2.88916h-13.593262v-2.88916
			c1.357422-0.189453,2.265137-0.52832,2.723145-1.018066c0.45752-0.489258,0.687012-1.444824,0.687012-2.865723V51.384766
			l-39.595703-34.622559v51.152344c0,1.420898,0.228516,2.376465,0.687012,2.865723
			c0.457031,0.489746,1.365234,0.828613,2.723145,1.018066v2.88916H178.519531z"/>
		<path d="M240.142578,41.012207c0-5.051758,0.883789-9.851562,2.652344-14.398438
			c1.767578-4.546875,4.27832-8.446289,7.53125-11.69873c3.09375-3.094238,6.661133-5.415039,10.703125-6.962402
			c4.041992-1.546875,8.556641-2.320801,13.546875-2.320801c4.988281,0,9.496094,0.773926,13.521484,2.320801
			c4.026367,1.547363,7.601562,3.868164,10.728516,6.962402c3.220703,3.252441,5.707031,7.144531,7.458984,11.674805
			c1.75293,4.531738,2.628906,9.338867,2.628906,14.422363c0,5.115234-0.875977,9.922363-2.628906,14.422363
			c-1.751953,4.499023-4.238281,8.359375-7.458984,11.580078c-3.126953,3.125977-6.695312,5.462891-10.705078,7.009766
			s-8.525391,2.320801-13.544922,2.320801c-4.990234,0-9.504883-0.773926-13.546875-2.320801s-7.609375-3.883789-10.703125-7.009766
			c-3.25293-3.251953-5.763672-7.12793-7.53125-11.62793C241.026367,50.887695,240.142578,46.096191,240.142578,41.012207z
			 M249.709961,41.012207c0,8.999023,2.217773,16.087891,6.654297,21.266113
			c4.436523,5.178711,10.506836,7.767578,18.211914,7.767578c7.671875,0,13.726562-2.588867,18.163086-7.767578
			c4.436523-5.178223,6.655273-12.26709,6.655273-21.266113s-2.21875-16.095215-6.655273-21.289551
			c-4.436523-5.193848-10.491211-7.791504-18.163086-7.791504c-7.673828,0-13.736328,2.597656-18.1875,7.791504
			C251.935547,24.916992,249.709961,32.013184,249.709961,41.012207z"/>
	</g>
	<g>
		<defs>
			<rect id="SVGID_3_" x="-11" y="-74" width="504" height="504"/>
		</defs>
		<clipPath id="SVGID_4_">
			<use xlink:href="#SVGID_3_"  style="overflow:visible;"/>
		</clipPath>
		<g style="clip-path:url(#SVGID_4_);">
			<path style="fill:none;stroke:#000000;stroke-width:2;" d="M177.987793,151.6875h-25.623535v-2.88916
				c1.357422-0.189453,2.265137-0.52832,2.723633-1.018066c0.457031-0.489258,0.686523-1.444824,0.686523-2.865723V90.683594
				c0-1.420898-0.236816-2.391602-0.710449-2.913086c-0.473633-0.520508-1.373535-0.844238-2.699707-0.970703v-2.936523h28.891602
				c7.514648,0,13.150879,1.326172,16.908691,3.978516c3.757324,2.652344,5.63623,6.599609,5.63623,11.84082
				c0,3.28418-0.892578,6.125977-2.675781,8.525391c-1.784668,2.399902-4.365723,4.24707-7.744141,5.541504
				c5.083496,1.07373,8.943359,3.102051,11.580078,6.086426c2.63623,2.983398,3.955078,6.8125,3.955078,11.485352
				c0,4.326172-1.06543,8.036133-3.197266,11.130371c-2.130859,3.094727-5.233398,5.431152-9.306641,7.009766
				c-2.052734,0.789551-4.397461,1.35791-7.033203,1.705078C186.741699,151.51416,182.944824,151.6875,177.987793,151.6875z
				 M164.583984,110.765625h18.04541c4.009766,0,7.080566-0.875977,9.212402-2.628906
				c2.130859-1.751953,3.196777-4.27002,3.196777-7.554199c0-3.378418-1.065918-5.95166-3.196777-7.720215
				c-2.131836-1.768066-5.233887-2.652344-9.307129-2.652344h-17.950684V110.765625z M164.583984,145.388184h15.724609
				c6.441406,0,11.249023-1.167969,14.421875-3.504883c3.173828-2.336426,4.760254-5.856934,4.760254-10.562012
				c0-4.483398-1.586426-8.011719-4.760254-10.585938c-3.172852-2.572754-7.522949-3.859863-13.04834-3.859863h-17.098145
				V145.388184z"/>
			<path style="fill:none;stroke:#000000;stroke-width:2;" d="M220.661621,151.6875h-12.503906v-2.88916
				c0.726562-0.125977,1.334473-0.449707,1.82373-0.971191c0.48877-0.520508,1.049316-1.554688,1.681152-3.102051
				l24.439453-60.861816h6.299316l25.102539,61.809082c0.599609,1.35791,1.06543,2.21875,1.397461,2.581543
				c0.331055,0.363281,0.749023,0.544434,1.254883,0.544434v2.88916h-13.972656v-2.88916
				c1.010742-0.125977,1.681641-0.31543,2.013672-0.568359c0.331055-0.252441,0.49707-0.678711,0.49707-1.278809
				c0-0.157715-0.016602-0.331543-0.047852-0.520996s-0.079102-0.378906-0.141602-0.568359l-8.525391-21.550293h-23.586914
				l-8.146484,21.07666c-0.031738,0.031738-0.071289,0.158203-0.118164,0.378906
				c-0.047852,0.221191-0.071289,0.442383-0.071289,0.663086c0,0.789551,0.189453,1.350098,0.568359,1.681152
				c0.378906,0.332031,1.057617,0.561035,2.036621,0.687012V151.6875z M228.808105,118.20166h18.756348l-9.615234-23.82373
				L228.808105,118.20166z"/>
		</g>
		<g style="clip-path:url(#SVGID_4_);">
			<path style="fill:none;stroke:#000000;stroke-width:2;" d="M295.173828,151.6875h-21.549805v-2.88916
				c1.388672-0.189453,2.321289-0.536621,2.793945-1.041992c0.474609-0.504883,0.710938-1.452148,0.710938-2.841797V90.683594
				c0-1.38916-0.25293-2.352051-0.757812-2.88916c-0.505859-0.536621-1.405273-0.868164-2.699219-0.994629l-0.047852-2.936523
				h11.556641c8.177734,0,14.500977,0.347656,18.96875,1.041992c4.467773,0.694824,8.264648,1.847168,11.391602,3.45752
				c6.030273,3,10.805664,7.499512,14.327148,13.498535c3.520508,5.999512,5.280273,12.677734,5.280273,20.034668
				c0,5.841797-1.21582,11.004395-3.646484,15.487793c-2.431641,4.483887-5.841797,7.894043-10.230469,10.230469
				c-2.71582,1.452637-6,2.494629-9.851562,3.125977C307.567383,151.37207,302.152344,151.6875,295.173828,151.6875z
				 M286.033203,145.19873h11.556641c5.020508,0,8.84082-0.268066,11.461914-0.805176
				c2.620117-0.536621,4.90918-1.436523,6.868164-2.699707c3.09375-2.020508,5.469727-4.720215,7.12793-8.099121
				c1.657227-3.378418,2.486328-7.246582,2.486328-11.604004c0-5.241211-1.03418-10.206543-3.102539-14.895996
				c-2.068359-4.688477-4.823242-8.359375-8.264648-11.011719c-2.621094-2.052246-5.801758-3.543945-9.543945-4.475586
				c-3.741211-0.931152-8.438477-1.397461-14.089844-1.397461h-4.5V145.19873z"/>
		</g>
	</g>
	<g>
		<path d="M177.987793,151.6875h-25.623535v-2.88916c1.357422-0.189453,2.265137-0.52832,2.723633-1.018066
			c0.457031-0.489258,0.686523-1.444824,0.686523-2.865723V90.683594c0-1.420898-0.236816-2.391602-0.710449-2.913086
			c-0.473633-0.520508-1.373535-0.844238-2.699707-0.970703v-2.936523h28.891602c7.514648,0,13.150879,1.326172,16.908691,3.978516
			c3.757324,2.652344,5.63623,6.599609,5.63623,11.84082c0,3.28418-0.892578,6.125977-2.675781,8.525391
			c-1.784668,2.399902-4.365723,4.24707-7.744141,5.541504c5.083496,1.07373,8.943359,3.102051,11.580078,6.086426
			c2.63623,2.983398,3.955078,6.8125,3.955078,11.485352c0,4.326172-1.06543,8.036133-3.197266,11.130371
			c-2.130859,3.094727-5.233398,5.431152-9.306641,7.009766c-2.052734,0.789551-4.397461,1.35791-7.033203,1.705078
			C186.741699,151.51416,182.944824,151.6875,177.987793,151.6875z M164.583984,110.765625h18.04541
			c4.009766,0,7.080566-0.875977,9.212402-2.628906c2.130859-1.751953,3.196777-4.27002,3.196777-7.554199
			c0-3.378418-1.065918-5.95166-3.196777-7.720215c-2.131836-1.768066-5.233887-2.652344-9.307129-2.652344h-17.950684V110.765625z
			 M164.583984,145.388184h15.724609c6.441406,0,11.249023-1.167969,14.421875-3.504883
			c3.173828-2.336426,4.760254-5.856934,4.760254-10.562012c0-4.483398-1.586426-8.011719-4.760254-10.585938
			c-3.172852-2.572754-7.522949-3.859863-13.04834-3.859863h-17.098145V145.388184z"/>
		<path d="M220.661621,151.6875h-12.503906v-2.88916c0.726562-0.125977,1.334473-0.449707,1.82373-0.971191
			c0.48877-0.520508,1.049316-1.554688,1.681152-3.102051l24.439453-60.861816h6.299316l25.102539,61.809082
			c0.599609,1.35791,1.06543,2.21875,1.397461,2.581543c0.331055,0.363281,0.749023,0.544434,1.254883,0.544434v2.88916h-13.972656
			v-2.88916c1.010742-0.125977,1.681641-0.31543,2.013672-0.568359c0.331055-0.252441,0.49707-0.678711,0.49707-1.278809
			c0-0.157715-0.016602-0.331543-0.047852-0.520996s-0.079102-0.378906-0.141602-0.568359l-8.525391-21.550293h-23.586914
			l-8.146484,21.07666c-0.031738,0.031738-0.071289,0.158203-0.118164,0.378906
			c-0.047852,0.221191-0.071289,0.442383-0.071289,0.663086c0,0.789551,0.189453,1.350098,0.568359,1.681152
			c0.378906,0.332031,1.057617,0.561035,2.036621,0.687012V151.6875z M228.808105,118.20166h18.756348l-9.615234-23.82373
			L228.808105,118.20166z"/>
	</g>
	<g>
		<path d="M295.173828,151.6875h-21.549805v-2.88916c1.388672-0.189453,2.321289-0.536621,2.793945-1.041992
			c0.474609-0.504883,0.710938-1.452148,0.710938-2.841797V90.683594c0-1.38916-0.25293-2.352051-0.757812-2.88916
			c-0.505859-0.536621-1.405273-0.868164-2.699219-0.994629l-0.047852-2.936523h11.556641
			c8.177734,0,14.500977,0.347656,18.96875,1.041992c4.467773,0.694824,8.264648,1.847168,11.391602,3.45752
			c6.030273,3,10.805664,7.499512,14.327148,13.498535c3.520508,5.999512,5.280273,12.677734,5.280273,20.034668
			c0,5.841797-1.21582,11.004395-3.646484,15.487793c-2.431641,4.483887-5.841797,7.894043-10.230469,10.230469
			c-2.71582,1.452637-6,2.494629-9.851562,3.125977C307.567383,151.37207,302.152344,151.6875,295.173828,151.6875z
			 M286.033203,145.19873h11.556641c5.020508,0,8.84082-0.268066,11.461914-0.805176
			c2.620117-0.536621,4.90918-1.436523,6.868164-2.699707c3.09375-2.020508,5.469727-4.720215,7.12793-8.099121
			c1.657227-3.378418,2.486328-7.246582,2.486328-11.604004c0-5.241211-1.03418-10.206543-3.102539-14.895996
			c-2.068359-4.688477-4.823242-8.359375-8.264648-11.011719c-2.621094-2.052246-5.801758-3.543945-9.543945-4.475586
			c-3.741211-0.931152-8.438477-1.397461-14.089844-1.397461h-4.5V145.19873z"/>
	</g>
	<g>
		<defs>
			<rect id="SVGID_5_" x="-11" y="-74" width="504" height="504"/>
		</defs>
		<clipPath id="SVGID_6_">
			<use xlink:href="#SVGID_5_"  style="overflow:visible;"/>
		</clipPath>
		<g style="clip-path:url(#SVGID_6_);">
			<path style="fill:none;stroke:#000000;stroke-width:2;" d="M17.853516,228.6875H4.875977v-2.888672
				c1.041992-0.189453,1.831055-0.544922,2.368164-1.066406c0.536621-0.520508,0.899902-1.270508,1.089355-2.25l9.993652-55.604004
				c0-0.03125,0.015625-0.165527,0.047363-0.402832c0.03125-0.236328,0.047363-0.449707,0.047363-0.63916
				c0-0.663086-0.189453-1.144043-0.568359-1.444824c-0.378906-0.299316-1.010742-0.49707-1.894531-0.591797l-0.047363-2.936523
				h11.461914l15.629883,38.553711l14.72998-38.553711h11.746094l-0.047363,2.936523
				c-0.979004,0.094727-1.650391,0.307617-2.013184,0.639648c-0.363281,0.331055-0.560547,0.92334-0.591797,1.775879
				c0,0.189453,0.015625,0.410645,0.047363,0.663086c0.03125,0.25293,0.078613,0.600098,0.14209,1.041992l9.425293,54.562012
				c0.220703,1.136719,0.560059,1.918945,1.018066,2.344727c0.45752,0.426758,1.223633,0.750977,2.297363,0.97168v2.888672
				H65.216797v-2.888672c0.978516-0.125977,1.67334-0.355469,2.083984-0.6875
				c0.410156-0.331055,0.615723-0.859375,0.615723-1.585938c0-0.25293-0.008301-0.450195-0.023926-0.592773
				c-0.016113-0.141602-0.039551-0.291016-0.070801-0.450195l-8.525391-49.399414l-15.15625,39.785156h-4.167969
				l-15.914062-39.358887l-8.904297,49.020996c-0.031738,0.126953-0.055664,0.25293-0.070801,0.378906
				c-0.016602,0.126953-0.023926,0.331055-0.023926,0.616211c0,0.726562,0.228516,1.270508,0.687012,1.633789
				c0.457031,0.363281,1.160156,0.576172,2.107422,0.639648V228.6875z"/>
			<path style="fill:none;stroke:#000000;stroke-width:2;" d="M83.158203,228.6875v-2.888672
				c1.357422-0.189453,2.280762-0.529297,2.770508-1.018555c0.489258-0.489258,0.734375-1.444336,0.734375-2.866211v-54.230469
				c0-1.38916-0.236816-2.336426-0.710449-2.841797c-0.473633-0.504883-1.405273-0.852539-2.794434-1.041992v-2.936523h50.252441
				v11.461914h-2.699707c-0.126465-1.95752-0.71875-3.299316-1.776367-4.025879
				c-1.058105-0.726074-3.607422-1.089355-7.648926-1.089355H95.472656v19.94043h24.25
				c1.67334,0,2.865234-0.245117,3.576172-0.734375c0.709961-0.489258,1.144043-1.333984,1.302246-2.53418h2.60498v12.977539
				h-2.60498c-0.158203-1.231445-0.600098-2.099609-1.326172-2.605469c-0.726562-0.503906-1.910645-0.757812-3.552246-0.757812
				h-24.25v28.703125h30.73877c2.431152,0,4.191895-0.474609,5.280762-1.421875
				c1.089844-0.947266,1.665527-2.477539,1.729004-4.59375h2.699707V228.6875H83.158203z"/>
		</g>
		<g style="clip-path:url(#SVGID_6_);">
			<path style="fill:none;stroke:#000000;stroke-width:2;" d="M151.072266,228.6875h-12.977539v-2.888672
				c1.041992-0.189453,1.831055-0.544922,2.368164-1.066406c0.536621-0.520508,0.899902-1.270508,1.089355-2.25l9.993652-55.604004
				c0-0.03125,0.015625-0.165527,0.047363-0.402832c0.03125-0.236328,0.047363-0.449707,0.047363-0.63916
				c0-0.663086-0.189453-1.144043-0.568359-1.444824c-0.378906-0.299316-1.010742-0.49707-1.894531-0.591797l-0.047363-2.936523
				h11.461914l15.629883,38.553711l14.72998-38.553711h11.746094l-0.047363,2.936523
				c-0.979004,0.094727-1.650391,0.307617-2.013184,0.639648c-0.363281,0.331055-0.560547,0.92334-0.591797,1.775879
				c0,0.189453,0.015625,0.410645,0.047363,0.663086c0.03125,0.25293,0.078613,0.600098,0.14209,1.041992l9.425293,54.562012
				c0.220703,1.136719,0.560059,1.918945,1.018066,2.344727c0.45752,0.426758,1.223633,0.750977,2.297363,0.97168v2.888672
				h-14.540527v-2.888672c0.978516-0.125977,1.67334-0.355469,2.083984-0.6875
				c0.410156-0.331055,0.615723-0.859375,0.615723-1.585938c0-0.25293-0.008301-0.450195-0.023926-0.592773
				c-0.016113-0.141602-0.039551-0.291016-0.070801-0.450195l-8.525391-49.399414l-15.15625,39.785156h-4.167969
				l-15.914062-39.358887l-8.904297,49.020996c-0.031738,0.126953-0.055664,0.25293-0.070801,0.378906
				c-0.016602,0.126953-0.023926,0.331055-0.023926,0.616211c0,0.726562,0.228516,1.270508,0.687012,1.633789
				c0.457031,0.363281,1.160156,0.576172,2.107422,0.639648V228.6875z"/>
			<path style="fill:none;stroke:#000000;stroke-width:2;" d="M214.162109,195.011719
				c0-5.050781,0.883789-9.851562,2.652344-14.398438c1.768066-4.546387,4.27832-8.445801,7.530762-11.698242
				c3.094238-3.094238,6.662109-5.415039,10.704102-6.962402c4.041504-1.546875,8.556152-2.320801,13.546387-2.320801
				c4.988281,0,9.496094,0.773926,13.521484,2.320801c4.026367,1.547363,7.601562,3.868164,10.728516,6.962402
				c3.220703,3.252441,5.707031,7.144531,7.458984,11.674805c1.75293,4.53125,2.628906,9.338867,2.628906,14.421875
				c0,5.115234-0.875977,9.922852-2.628906,14.422852c-1.751953,4.499023-4.238281,8.359375-7.458984,11.580078
				c-3.126953,3.125977-6.695312,5.462891-10.705078,7.009766s-8.525391,2.321289-13.544922,2.321289
				c-4.990234,0-9.504883-0.774414-13.546387-2.321289c-4.041992-1.546875-7.609863-3.883789-10.704102-7.009766
				c-3.252441-3.251953-5.762695-7.12793-7.530762-11.62793C215.045898,204.887695,214.162109,200.09668,214.162109,195.011719z
				 M223.729492,195.011719c0,9,2.217773,16.088867,6.654297,21.266602c4.436035,5.178711,10.506836,7.767578,18.211914,7.767578
				c7.671875,0,13.726562-2.588867,18.163086-7.767578c4.436523-5.177734,6.655273-12.266602,6.655273-21.266602
				c0-8.998047-2.21875-16.094727-6.655273-21.289062c-4.436523-5.193848-10.491211-7.791504-18.163086-7.791504
				c-7.67334,0-13.73584,2.597656-18.187988,7.791504C225.955566,178.916992,223.729492,186.013672,223.729492,195.011719z"/>
			<path style="fill:none;stroke:#000000;stroke-width:2;" d="M288.619141,228.6875v-2.888672
				c1.388672-0.189453,2.320312-0.537109,2.794922-1.042969c0.472656-0.503906,0.709961-1.451172,0.709961-2.841797v-54.230469
				c0-1.420898-0.229492-2.375488-0.686523-2.865234c-0.458008-0.489258-1.366211-0.829102-2.723633-1.018555v-2.936523h29.602539
				c6.850586,0,12.100586,1.515625,15.748047,4.546875c3.646484,3.03125,5.470703,7.373047,5.470703,13.025391
				c0,5.525391-1.745117,9.938477-5.234375,13.237305c-3.489258,3.299805-8.501953,5.265625-15.037109,5.897461l18.849609,25.576172
				c0.504883,0.726562,1.167969,1.310547,1.990234,1.751953c0.820312,0.442383,1.767578,0.742188,2.841797,0.900391v2.888672
				h-11.367188l-22.119141-30.644531h-8.620117v23.871094c0,1.390625,0.237305,2.337891,0.709961,2.841797
				c0.474609,0.505859,1.405273,0.853516,2.794922,1.042969v2.888672H288.619141z M312.963867,191.933594
				c6.188477,0,10.727539-1.025391,13.617188-3.078125c2.888672-2.052734,4.333008-5.257812,4.333008-9.615234
				c0-4.325684-1.200195-7.427734-3.599609-9.306641c-2.399414-1.878418-6.441406-2.818359-12.125-2.818359h-14.350586v24.818359
				H312.963867z"/>
			<path style="fill:none;stroke:#000000;stroke-width:2;" d="M346.830078,228.6875v-2.888672
				c1.357422-0.189453,2.265625-0.529297,2.723633-1.018555c0.457031-0.489258,0.686523-1.444336,0.686523-2.866211v-54.230469
				c0-0.852539-0.063477-1.483887-0.189453-1.894531c-0.126953-0.410156-0.316406-0.757812-0.568359-1.041992
				c-0.22168-0.189453-0.560547-0.370605-1.018555-0.544922c-0.458008-0.172852-0.987305-0.307617-1.585938-0.402344
				l-0.047852-2.936523h15.819336v2.936523c-1.389648,0.189453-2.320312,0.537109-2.794922,1.041992
				c-0.472656,0.505371-0.709961,1.452637-0.709961,2.841797v54.230469c0,1.358398,0.251953,2.305664,0.757812,2.841797
				c0.504883,0.538086,1.420898,0.884766,2.74707,1.042969v2.888672H346.830078z"/>
		</g>
		<g style="clip-path:url(#SVGID_6_);">
			<path style="fill:none;stroke:#000000;stroke-width:2;" d="M368.78418,228.6875v-2.888672
				c1.357422-0.189453,2.28125-0.529297,2.770508-1.018555s0.734375-1.444336,0.734375-2.866211v-54.230469
				c0-1.38916-0.236328-2.336426-0.710938-2.841797c-0.472656-0.504883-1.405273-0.852539-2.793945-1.041992v-2.936523h50.25293
				v11.461914h-2.700195c-0.126953-1.95752-0.71875-3.299316-1.776367-4.025879
				c-1.057617-0.726074-3.607422-1.089355-7.648438-1.089355h-25.813477v19.94043h24.25
				c1.672852,0,2.865234-0.245117,3.576172-0.734375c0.709961-0.489258,1.143555-1.333984,1.301758-2.53418h2.605469v12.977539
				h-2.605469c-0.158203-1.231445-0.599609-2.099609-1.326172-2.605469c-0.726562-0.503906-1.910156-0.757812-3.551758-0.757812
				h-24.25v28.703125h30.739258c2.430664,0,4.191406-0.474609,5.280273-1.421875
				c1.089844-0.947266,1.665039-2.477539,1.729492-4.59375h2.699219V228.6875H368.78418z"/>
			<path style="fill:none;stroke:#000000;stroke-width:2;" d="M424.463867,213.24707l9.993164-6.393555l2.036133,2.841797
				c-0.883789,0.599609-1.539062,1.286133-1.964844,2.05957c-0.426758,0.774414-0.639648,1.603516-0.639648,2.487305
				c0,2.588867,1.672852,4.885742,5.020508,6.890625c3.34668,2.005859,7.419922,3.007812,12.219727,3.007812
				c5.588867,0,10.041016-1.175781,13.356445-3.52832s4.972656-5.486328,4.972656-9.401367
				c0-2.810547-0.851562-5.083984-2.556641-6.820312s-4.706055-3.299805-9-4.689453l-14.161133-4.689453
				c-5.526367-1.798828-9.607422-4.103516-12.243164-6.914062c-2.636719-2.810547-3.955078-6.251953-3.955078-10.325684
				c0-5.430664,2.202148-9.811523,6.607422-13.143066c4.404297-3.331055,10.19043-4.99707,17.358398-4.99707
				c4.483398,0,8.580078,0.773926,12.291016,2.320801c3.709961,1.547363,7.412109,4.010254,11.106445,7.388672l-7.483398,8.904785
				l-2.510742-1.942383c0.31543-0.536621,0.552734-1.113281,0.710938-1.728516
				c0.157227-0.616211,0.236328-1.239258,0.236328-1.871094c0-1.831055-1.419922-3.496582-4.261719-4.99707
				c-2.841797-1.499023-6.205078-2.249512-10.088867-2.249512c-4.736328,0-8.557617,1.00293-11.461914,3.007324
				c-2.905273,2.005859-4.357422,4.618164-4.357422,7.838867c0,2.305664,0.789062,4.175781,2.368164,5.612305
				c1.578125,1.4375,4.641602,2.897461,9.188477,4.380859l11.461914,3.789062
				c6.946289,2.273438,11.848633,4.942383,14.706055,8.004883c2.857422,3.063477,4.287109,7.057617,4.287109,11.983398
				c0,6.345703-2.361328,11.327148-7.081055,14.942383c-4.720703,3.616211-11.249023,5.422852-19.584961,5.422852
				c-6.630859,0-12.085938-1.389648-16.364258-4.167969C430.391602,223.494141,426.989258,219.152344,424.463867,213.24707z"/>
		</g>
	</g>
	<g>
		<path d="M17.853516,228.6875H4.875977v-2.888672c1.041992-0.189453,1.831055-0.544922,2.368164-1.066406
			c0.536621-0.520508,0.899902-1.270508,1.089355-2.25l9.993652-55.604004c0-0.03125,0.015625-0.165527,0.047363-0.402832
			c0.03125-0.236328,0.047363-0.449707,0.047363-0.63916c0-0.663086-0.189453-1.144043-0.568359-1.444824
			c-0.378906-0.299316-1.010742-0.49707-1.894531-0.591797l-0.047363-2.936523h11.461914l15.629883,38.553711l14.72998-38.553711
			h11.746094l-0.047363,2.936523c-0.979004,0.094727-1.650391,0.307617-2.013184,0.639648
			c-0.363281,0.331055-0.560547,0.92334-0.591797,1.775879c0,0.189453,0.015625,0.410645,0.047363,0.663086
			c0.03125,0.25293,0.078613,0.600098,0.14209,1.041992l9.425293,54.562012c0.220703,1.136719,0.560059,1.918945,1.018066,2.344727
			c0.45752,0.426758,1.223633,0.750977,2.297363,0.97168v2.888672H65.216797v-2.888672
			c0.978516-0.125977,1.67334-0.355469,2.083984-0.6875c0.410156-0.331055,0.615723-0.859375,0.615723-1.585938
			c0-0.25293-0.008301-0.450195-0.023926-0.592773c-0.016113-0.141602-0.039551-0.291016-0.070801-0.450195l-8.525391-49.399414
			l-15.15625,39.785156h-4.167969l-15.914062-39.358887l-8.904297,49.020996c-0.031738,0.126953-0.055664,0.25293-0.070801,0.378906
			c-0.016602,0.126953-0.023926,0.331055-0.023926,0.616211c0,0.726562,0.228516,1.270508,0.687012,1.633789
			c0.457031,0.363281,1.160156,0.576172,2.107422,0.639648V228.6875z"/>
		<path d="M83.158203,228.6875v-2.888672c1.357422-0.189453,2.280762-0.529297,2.770508-1.018555
			c0.489258-0.489258,0.734375-1.444336,0.734375-2.866211v-54.230469c0-1.38916-0.236816-2.336426-0.710449-2.841797
			c-0.473633-0.504883-1.405273-0.852539-2.794434-1.041992v-2.936523h50.252441v11.461914h-2.699707
			c-0.126465-1.95752-0.71875-3.299316-1.776367-4.025879c-1.058105-0.726074-3.607422-1.089355-7.648926-1.089355H95.472656
			v19.94043h24.25c1.67334,0,2.865234-0.245117,3.576172-0.734375c0.709961-0.489258,1.144043-1.333984,1.302246-2.53418h2.60498
			v12.977539h-2.60498c-0.158203-1.231445-0.600098-2.099609-1.326172-2.605469
			c-0.726562-0.503906-1.910645-0.757812-3.552246-0.757812h-24.25v28.703125h30.73877
			c2.431152,0,4.191895-0.474609,5.280762-1.421875c1.089844-0.947266,1.665527-2.477539,1.729004-4.59375h2.699707V228.6875
			H83.158203z"/>
	</g>
	<g>
		<path d="M151.072266,228.6875h-12.977539v-2.888672c1.041992-0.189453,1.831055-0.544922,2.368164-1.066406
			c0.536621-0.520508,0.899902-1.270508,1.089355-2.25l9.993652-55.604004c0-0.03125,0.015625-0.165527,0.047363-0.402832
			c0.03125-0.236328,0.047363-0.449707,0.047363-0.63916c0-0.663086-0.189453-1.144043-0.568359-1.444824
			c-0.378906-0.299316-1.010742-0.49707-1.894531-0.591797l-0.047363-2.936523h11.461914l15.629883,38.553711l14.72998-38.553711
			h11.746094l-0.047363,2.936523c-0.979004,0.094727-1.650391,0.307617-2.013184,0.639648
			c-0.363281,0.331055-0.560547,0.92334-0.591797,1.775879c0,0.189453,0.015625,0.410645,0.047363,0.663086
			c0.03125,0.25293,0.078613,0.600098,0.14209,1.041992l9.425293,54.562012c0.220703,1.136719,0.560059,1.918945,1.018066,2.344727
			c0.45752,0.426758,1.223633,0.750977,2.297363,0.97168v2.888672h-14.540527v-2.888672
			c0.978516-0.125977,1.67334-0.355469,2.083984-0.6875c0.410156-0.331055,0.615723-0.859375,0.615723-1.585938
			c0-0.25293-0.008301-0.450195-0.023926-0.592773c-0.016113-0.141602-0.039551-0.291016-0.070801-0.450195l-8.525391-49.399414
			l-15.15625,39.785156h-4.167969l-15.914062-39.358887l-8.904297,49.020996c-0.031738,0.126953-0.055664,0.25293-0.070801,0.378906
			c-0.016602,0.126953-0.023926,0.331055-0.023926,0.616211c0,0.726562,0.228516,1.270508,0.687012,1.633789
			c0.457031,0.363281,1.160156,0.576172,2.107422,0.639648V228.6875z"/>
		<path d="M214.162109,195.011719c0-5.050781,0.883789-9.851562,2.652344-14.398438
			c1.768066-4.546387,4.27832-8.445801,7.530762-11.698242c3.094238-3.094238,6.662109-5.415039,10.704102-6.962402
			c4.041504-1.546875,8.556152-2.320801,13.546387-2.320801c4.988281,0,9.496094,0.773926,13.521484,2.320801
			c4.026367,1.547363,7.601562,3.868164,10.728516,6.962402c3.220703,3.252441,5.707031,7.144531,7.458984,11.674805
			c1.75293,4.53125,2.628906,9.338867,2.628906,14.421875c0,5.115234-0.875977,9.922852-2.628906,14.422852
			c-1.751953,4.499023-4.238281,8.359375-7.458984,11.580078c-3.126953,3.125977-6.695312,5.462891-10.705078,7.009766
			s-8.525391,2.321289-13.544922,2.321289c-4.990234,0-9.504883-0.774414-13.546387-2.321289
			c-4.041992-1.546875-7.609863-3.883789-10.704102-7.009766c-3.252441-3.251953-5.762695-7.12793-7.530762-11.62793
			C215.045898,204.887695,214.162109,200.09668,214.162109,195.011719z M223.729492,195.011719
			c0,9,2.217773,16.088867,6.654297,21.266602c4.436035,5.178711,10.506836,7.767578,18.211914,7.767578
			c7.671875,0,13.726562-2.588867,18.163086-7.767578c4.436523-5.177734,6.655273-12.266602,6.655273-21.266602
			c0-8.998047-2.21875-16.094727-6.655273-21.289062c-4.436523-5.193848-10.491211-7.791504-18.163086-7.791504
			c-7.67334,0-13.73584,2.597656-18.187988,7.791504C225.955566,178.916992,223.729492,186.013672,223.729492,195.011719z"/>
		<path d="M288.619141,228.6875v-2.888672c1.388672-0.189453,2.320312-0.537109,2.794922-1.042969
			c0.472656-0.503906,0.709961-1.451172,0.709961-2.841797v-54.230469c0-1.420898-0.229492-2.375488-0.686523-2.865234
			c-0.458008-0.489258-1.366211-0.829102-2.723633-1.018555v-2.936523h29.602539c6.850586,0,12.100586,1.515625,15.748047,4.546875
			c3.646484,3.03125,5.470703,7.373047,5.470703,13.025391c0,5.525391-1.745117,9.938477-5.234375,13.237305
			c-3.489258,3.299805-8.501953,5.265625-15.037109,5.897461l18.849609,25.576172
			c0.504883,0.726562,1.167969,1.310547,1.990234,1.751953c0.820312,0.442383,1.767578,0.742188,2.841797,0.900391v2.888672
			h-11.367188l-22.119141-30.644531h-8.620117v23.871094c0,1.390625,0.237305,2.337891,0.709961,2.841797
			c0.474609,0.505859,1.405273,0.853516,2.794922,1.042969v2.888672H288.619141z M312.963867,191.933594
			c6.188477,0,10.727539-1.025391,13.617188-3.078125c2.888672-2.052734,4.333008-5.257812,4.333008-9.615234
			c0-4.325684-1.200195-7.427734-3.599609-9.306641c-2.399414-1.878418-6.441406-2.818359-12.125-2.818359h-14.350586v24.818359
			H312.963867z"/>
		<path d="M346.830078,228.6875v-2.888672c1.357422-0.189453,2.265625-0.529297,2.723633-1.018555
			c0.457031-0.489258,0.686523-1.444336,0.686523-2.866211v-54.230469c0-0.852539-0.063477-1.483887-0.189453-1.894531
			c-0.126953-0.410156-0.316406-0.757812-0.568359-1.041992c-0.22168-0.189453-0.560547-0.370605-1.018555-0.544922
			c-0.458008-0.172852-0.987305-0.307617-1.585938-0.402344l-0.047852-2.936523h15.819336v2.936523
			c-1.389648,0.189453-2.320312,0.537109-2.794922,1.041992c-0.472656,0.505371-0.709961,1.452637-0.709961,2.841797v54.230469
			c0,1.358398,0.251953,2.305664,0.757812,2.841797c0.504883,0.538086,1.420898,0.884766,2.74707,1.042969v2.888672H346.830078z"/>
	</g>
	<g>
		<path d="M368.78418,228.6875v-2.888672c1.357422-0.189453,2.28125-0.529297,2.770508-1.018555
			s0.734375-1.444336,0.734375-2.866211v-54.230469c0-1.38916-0.236328-2.336426-0.710938-2.841797
			c-0.472656-0.504883-1.405273-0.852539-2.793945-1.041992v-2.936523h50.25293v11.461914h-2.700195
			c-0.126953-1.95752-0.71875-3.299316-1.776367-4.025879c-1.057617-0.726074-3.607422-1.089355-7.648438-1.089355h-25.813477
			v19.94043h24.25c1.672852,0,2.865234-0.245117,3.576172-0.734375c0.709961-0.489258,1.143555-1.333984,1.301758-2.53418h2.605469
			v12.977539h-2.605469c-0.158203-1.231445-0.599609-2.099609-1.326172-2.605469
			c-0.726562-0.503906-1.910156-0.757812-3.551758-0.757812h-24.25v28.703125h30.739258
			c2.430664,0,4.191406-0.474609,5.280273-1.421875c1.089844-0.947266,1.665039-2.477539,1.729492-4.59375h2.699219V228.6875
			H368.78418z"/>
		<path d="M424.463867,213.24707l9.993164-6.393555l2.036133,2.841797c-0.883789,0.599609-1.539062,1.286133-1.964844,2.05957
			c-0.426758,0.774414-0.639648,1.603516-0.639648,2.487305c0,2.588867,1.672852,4.885742,5.020508,6.890625
			c3.34668,2.005859,7.419922,3.007812,12.219727,3.007812c5.588867,0,10.041016-1.175781,13.356445-3.52832
			s4.972656-5.486328,4.972656-9.401367c0-2.810547-0.851562-5.083984-2.556641-6.820312s-4.706055-3.299805-9-4.689453
			l-14.161133-4.689453c-5.526367-1.798828-9.607422-4.103516-12.243164-6.914062
			c-2.636719-2.810547-3.955078-6.251953-3.955078-10.325684c0-5.430664,2.202148-9.811523,6.607422-13.143066
			c4.404297-3.331055,10.19043-4.99707,17.358398-4.99707c4.483398,0,8.580078,0.773926,12.291016,2.320801
			c3.709961,1.547363,7.412109,4.010254,11.106445,7.388672l-7.483398,8.904785l-2.510742-1.942383
			c0.31543-0.536621,0.552734-1.113281,0.710938-1.728516c0.157227-0.616211,0.236328-1.239258,0.236328-1.871094
			c0-1.831055-1.419922-3.496582-4.261719-4.99707c-2.841797-1.499023-6.205078-2.249512-10.088867-2.249512
			c-4.736328,0-8.557617,1.00293-11.461914,3.007324c-2.905273,2.005859-4.357422,4.618164-4.357422,7.838867
			c0,2.305664,0.789062,4.175781,2.368164,5.612305c1.578125,1.4375,4.641602,2.897461,9.188477,4.380859l11.461914,3.789062
			c6.946289,2.273438,11.848633,4.942383,14.706055,8.004883c2.857422,3.063477,4.287109,7.057617,4.287109,11.983398
			c0,6.345703-2.361328,11.327148-7.081055,14.942383c-4.720703,3.616211-11.249023,5.422852-19.584961,5.422852
			c-6.630859,0-12.085938-1.389648-16.364258-4.167969C430.391602,223.494141,426.989258,219.152344,424.463867,213.24707z"/>
	</g>
	<line style="fill:none;stroke:#000000;stroke-width:6;" x1="73.140137" y1="250.959961" x2="409.580078" y2="250.959961"/>
	<g>
		<path d="M166.489258,287.430664h-2.092285v12.959961h-17.10791v-33.408203h17.10791v11.423828h2.092285v-11.423828h17.353516
			v33.408203h-17.353516V287.430664z"/>
		<path d="M204.662109,300.390625v-12.383789h-2.215332v12.383789h-15.753906v-12.864258l4.922852-3.839844l-4.922852-3.935547
			v-12.768555h15.753906v13.34375h2.215332v-13.34375h15.753906v12.768555l-4.92334,3.935547l4.92334,3.839844v12.864258H204.662109
			z"/>
		<path d="M222.526855,266.982422h17.230957v27.360352h2.091797v-6.912109h17.107422v12.959961h-36.430176V266.982422z"/>
		<path d="M278.422852,266.982422l3.569336,6.144531v-6.144531h15.261719v29.472656l-5.045898,3.935547h-10.092773
			l-3.692383-6.816406v6.816406h-17.230469v-33.408203H278.422852z"/>
	</g>
	<g>
		<path d="M299.929688,266.982422h37.661133v9.408203H327.25293v24h-17.107422v-24h-10.21582V266.982422z"/>
	</g>
	<g>
		<path d="M345.089844,270.125c0,0.87207-0.304688,1.614258-0.914062,2.226562s-1.34668,0.917969-2.210938,0.917969
			s-1.604492-0.307617-2.21875-0.921875c-0.609375-0.612305-0.914062-1.355469-0.914062-2.230469
			c0-0.484375,0.098633-0.925781,0.296875-1.324219c0.200195-0.424805,0.479492-0.78418,0.835938-1.078125
			c0.583008-0.481445,1.238281-0.722656,1.964844-0.722656c0.481445,0,0.917969,0.09082,1.308594,0.273438
			c0.554688,0.242188,1.000977,0.625977,1.339844,1.152344C344.918945,268.946289,345.089844,269.515625,345.089844,270.125z
			 M341.941406,267.449219c-0.713867,0-1.325195,0.262695-1.835938,0.789062c-0.512695,0.52832-0.769531,1.15625-0.769531,1.882812
			c0,0.742188,0.256836,1.37793,0.769531,1.90625c0.510742,0.526367,1.129883,0.789062,1.859375,0.789062
			c0.72168,0,1.338867-0.261719,1.851562-0.785156c0.510742-0.526367,0.765625-1.161133,0.765625-1.90625
			c0-0.398438-0.100586-0.80957-0.300781-1.234375c-0.198242-0.398438-0.460938-0.714844-0.789062-0.949219
			C343.03125,267.613281,342.514648,267.449219,341.941406,267.449219z M342.269531,270.429688l1.175781,1.511719h-0.84375
			l-1.074219-1.433594v1.433594h-0.691406v-3.617188h0.722656c0.504883,0,0.874023,0.089844,1.105469,0.269531
			c0.257812,0.208008,0.386719,0.480469,0.386719,0.816406c0,0.226562-0.069336,0.436523-0.207031,0.628906
			c-0.137695,0.1875-0.313477,0.3125-0.527344,0.375L342.269531,270.429688z M341.523438,269.929688h0.117188
			c0.495117,0,0.742188-0.170898,0.742188-0.511719c0-0.317383-0.239258-0.476562-0.71875-0.476562h-0.140625V269.929688z"/>
	</g>
</g>
</svg>
