<?xml version="1.0" encoding="utf-8"?>
<!-- Generator: Adobe Illustrator 16.0.0, SVG Export Plug-In . SVG Version: 6.00 Build 0)  -->
<!DOCTYPE svg PUBLIC "-//W3C//DTD SVG 1.1//EN" "http://www.w3.org/Graphics/SVG/1.1/DTD/svg11.dtd">
<svg version="1.1" id="Layer_1" xmlns="http://www.w3.org/2000/svg" xmlns:xlink="http://www.w3.org/1999/xlink" x="0px" y="0px"
	 width="23.666px" height="249.002px" viewBox="0 0 23.666 249.002" enable-background="new 0 0 23.666 249.002"
	 xml:space="preserve">
<g>
	<path d="M12.999,10.727l0.109,0.071c0.908-1.8,1.727-4.069,2.489-6.806l0.437,0.108c-0.763,2.809-1.617,5.131-2.544,6.968
		c1.744,1.225,3.507,2.736,5.288,4.556l-0.327,0.288c-1.744-1.765-3.471-3.26-5.161-4.466c-0.218,0.396-0.437,0.756-0.654,1.116
		c-1.617,2.503-3.871,4.502-6.761,5.978l-0.272-0.396c2.835-1.44,5.053-3.367,6.615-5.78c0.236-0.378,0.473-0.773,0.69-1.188
		c-0.072-0.036-0.127-0.072-0.163-0.108C11.164,10.006,9.273,8.98,7.093,7.99l0.182-0.396C9.474,8.583,11.382,9.628,12.999,10.727z"
		/>
	<path d="M17.307,23.667v0.414h-6.615v5.005h7.487v0.415h-7.487v5.275c0,1.296,0.854,1.962,2.562,1.962
		c1.562,0,3.162-0.071,4.762-0.197v0.432c-1.581,0.126-3.162,0.198-4.762,0.198c-1.108,0-1.891-0.18-2.326-0.522
		c-0.454-0.36-0.673-0.972-0.673-1.872v-5.275H4.804v-0.415h5.451v-5.005H5.494v-0.414H17.307z"/>
	<path d="M7.584,42.458v8.535H7.147v-8.535H7.584z M16.325,42.081v5.96c0,2.286-0.418,4.069-1.254,5.348
		c-0.963,1.44-2.599,2.502-4.925,3.15l-0.2-0.396c2.254-0.612,3.835-1.603,4.762-3.007c0.781-1.207,1.181-2.899,1.181-5.078v-5.978
		H16.325z"/>
	<path d="M11.964,65.446c1.49,1.927,4.034,3.638,7.65,5.114l-0.236,0.342c-3.398-1.368-5.942-3.061-7.614-5.077
		c-2.054,2.196-4.634,3.907-7.76,5.113l-0.236-0.342c3.38-1.333,5.979-3.043,7.796-5.15H11.964z M10.146,63.538
		c-1.545,1.297-3.436,2.449-5.688,3.421l-0.255-0.306c2.218-0.973,4.107-2.089,5.634-3.386L10.146,63.538z M12.2,61.539h6.523v2.701
		h-0.399v-2.305H5.13v2.413H4.73v-2.81h7.088c-0.236-0.647-0.491-1.242-0.764-1.764l0.382-0.072
		C11.709,60.243,11.964,60.855,12.2,61.539z M16.707,76.051h-0.382V75.08H7.329v0.972H6.93v-5.474h9.777V76.051z M16.325,74.701
		v-3.727H7.329v3.727H16.325z M19.051,66.707l-0.272,0.271c-1.399-1.081-3.234-2.215-5.524-3.403l0.291-0.252
		C15.743,64.456,17.579,65.59,19.051,66.707z"/>
	<path d="M19.778,84.507v0.396H3.677v-0.396H19.778z M17.742,86.165v4.393h-5.833v1.477h6.487v0.36h-6.487v1.53h7.851v0.396H3.694
		v-0.396h7.814v-1.53H5.094v-0.36h6.415v-1.477H5.748v-4.393H17.742z M11.509,88.216v-1.692H6.13v1.692H11.509z M11.509,88.577H6.13
		v1.603h5.379V88.577z M17.361,79.016v4.177H6.148v-4.177H17.361z M16.961,80.907v-1.513H6.548v1.513H16.961z M16.961,81.267H6.548
		v1.548h10.413V81.267z M11.909,88.216h5.452v-1.692h-5.452V88.216z M17.361,88.577h-5.452v1.603h5.452V88.577z"/>
	<path d="M10.619,98.151c-0.327,1.368-0.654,2.7-0.981,3.979c0.509-0.036,0.999-0.036,1.508-0.036c1.163,0,2.035,0.36,2.617,1.081
		c0.509,0.666,0.781,1.656,0.781,2.952c0,1.675-0.163,3.079-0.473,4.195c-0.526,1.801-1.417,2.701-2.671,2.701
		c-0.873,0-1.69-0.162-2.436-0.486l0.055-0.396c0.836,0.323,1.617,0.485,2.381,0.485c1.072,0,1.835-0.882,2.289-2.629
		c0.291-1.116,0.437-2.395,0.437-3.871c0-2.448-0.999-3.654-2.98-3.654c-0.545,0-1.072,0.018-1.617,0.054
		c-1.145,4.069-2.453,7.544-3.926,10.425l-0.399-0.18c1.526-3.079,2.835-6.482,3.889-10.228c-1.271,0.091-2.599,0.253-3.998,0.505
		l-0.072-0.414c1.417-0.253,2.816-0.414,4.18-0.486c0.363-1.333,0.69-2.683,1-4.088L10.619,98.151z M19.851,108l-0.382,0.126
		c-0.29-1.44-0.708-2.719-1.218-3.854c-0.6-1.296-1.326-2.412-2.198-3.349l0.309-0.252C18.069,102.507,19.232,104.957,19.851,108z
		 M18.342,100.239l-0.309,0.217c-0.6-0.919-1.218-1.711-1.854-2.396l0.291-0.252C17.18,98.583,17.797,99.393,18.342,100.239z
		 M20.378,99.5l-0.31,0.217c-0.6-0.919-1.217-1.711-1.854-2.396l0.291-0.252C19.215,97.844,19.832,98.655,20.378,99.5z"/>
	<path d="M19.378,117.681v0.396h-6.16c-0.364,0.846-0.782,1.656-1.291,2.448v0.973c3.018,1.8,5.616,3.816,7.778,6.031l-0.236,0.307
		c-1.98-2.106-4.488-4.069-7.542-5.906v10.84h-0.399v-11.649c-1.781,2.538-4.307,4.753-7.578,6.661l-0.236-0.323
		c4.471-2.575,7.487-5.708,9.087-9.381H4.076v-0.396H19.378z"/>
	<path d="M17.379,136.275v5.473h-5.07v3.854h6.233v0.396h-6.233v4.717c1.163,0.181,2.617,0.288,4.38,0.288
		c1.199,0,2.199-0.018,2.999-0.036l-0.091,0.396c-1.055,0-1.999-0.018-2.872-0.018c-3.308,0-5.506-0.307-6.633-0.9
		c-1.163-0.631-2.199-1.909-3.107-3.817c-0.728,2.034-1.672,3.709-2.872,5.006l-0.272-0.288c1.781-1.98,2.999-4.646,3.635-8.03
		l0.382,0.071c-0.2,0.99-0.437,1.909-0.709,2.773c0.945,2.124,2.035,3.457,3.271,4.033c0.399,0.18,0.891,0.324,1.508,0.45v-8.896
		H6.548v-5.473H17.379z M16.979,136.653H6.93v4.717h10.05V136.653z"/>
	<path d="M7.802,155.031v10.497c0,2.521,1.345,3.781,4.071,3.781c2.871,0,5.052-2.053,6.506-6.158l0.399,0.145
		c-0.636,1.782-1.399,3.205-2.308,4.249c-1.272,1.459-2.799,2.196-4.598,2.196c-3.018,0-4.508-1.404-4.508-4.213v-10.497H7.802z"/>
	<path d="M18.561,175.424l-2.98,0.145c-0.654,0.036-1.436,0.414-2.345,1.152c-0.963,0.774-1.763,1.71-2.381,2.809
		c-0.727,1.225-1.072,2.449-1.072,3.673c0,1.549,0.601,2.737,1.8,3.583c1.199,0.847,2.907,1.278,5.088,1.297l-0.091,0.396
		c-2.289-0.035-4.052-0.485-5.288-1.368c-1.29-0.918-1.927-2.215-1.927-3.907c0-1.603,0.546-3.15,1.673-4.663
		c1.018-1.404,2.181-2.395,3.507-2.935c-2.326,0.144-5.561,0.396-9.74,0.72l-0.055-0.414c6.324-0.468,10.922-0.756,13.793-0.864
		L18.561,175.424z"/>
	<path d="M5.693,194.433c-0.199,1.513-0.29,3.079-0.29,4.682c0,2.088,0.29,3.871,0.908,5.329c0.618,1.44,1.381,2.179,2.326,2.179
		c0.527,0,1.054-0.54,1.563-1.62c0.363-0.792,0.617-1.566,0.763-2.341l0.418,0.072c-0.182,0.936-0.473,1.8-0.872,2.61
		c-0.582,1.135-1.199,1.711-1.872,1.711c-1.127,0-2.035-0.829-2.726-2.467c-0.637-1.513-0.945-3.331-0.945-5.474
		c0-1.621,0.091-3.188,0.291-4.735L5.693,194.433z M19.342,204.39l-0.437,0.018c-0.218-4.177-1.199-7.346-2.98-9.524l0.364-0.271
		C18.106,196.9,19.124,200.159,19.342,204.39z"/>
	<path d="M18.124,214.179c-2.235,0.072-4.216,0.127-5.924,0.162c0.036,1.333,0.072,2.503,0.108,3.548
		c1.672-0.019,3.489-0.055,5.471-0.091v0.396c-1.981,0.036-3.799,0.072-5.452,0.09c0.036,1.656,0.055,2.917,0.055,3.745
		c0.436,0.145,0.872,0.343,1.326,0.559c1.345,0.612,2.744,1.513,4.198,2.665l-0.272,0.359c-1.418-1.116-2.78-1.98-4.053-2.61
		c-0.418-0.198-0.818-0.378-1.199-0.522c-0.055,1.207-0.273,2.106-0.654,2.701c-0.546,0.792-1.509,1.206-2.854,1.206
		c-1.018,0-1.799-0.234-2.381-0.666c-0.581-0.45-0.854-1.026-0.854-1.747c0-0.737,0.29-1.35,0.872-1.836
		c0.581-0.504,1.381-0.738,2.398-0.738c0.981,0,2.018,0.162,3.071,0.504c-0.018-0.576-0.055-1.782-0.091-3.619
		c-0.781,0-1.526,0.019-2.235,0.019c-0.581,0-1.345-0.019-2.326-0.055l-1.472-0.036l-0.019-0.396l1.49,0.036
		c0.981,0.036,1.745,0.054,2.326,0.054c0.69,0,1.436-0.018,2.218-0.018l-0.091-3.548c-0.654,0-1.272,0.019-1.854,0.019
		c-0.581,0-1.436-0.019-2.562-0.036l-1.744-0.036v-0.396l1.744,0.035c1.127,0.019,1.981,0.036,2.562,0.036
		c0.563,0,1.182-0.018,1.836-0.018l-0.073-2.611l0.4-0.018c0.036,0.937,0.055,1.801,0.091,2.629c1.727-0.036,3.707-0.09,5.942-0.162
		V214.179z M8.91,221.778c-0.908,0-1.617,0.216-2.145,0.666c-0.49,0.396-0.727,0.919-0.727,1.53c0,0.595,0.218,1.081,0.69,1.441
		c0.509,0.396,1.218,0.594,2.145,0.594c1.199,0,2.054-0.378,2.544-1.099c0.364-0.558,0.546-1.422,0.563-2.574
		C10.892,221.958,9.874,221.778,8.91,221.778z"/>
	<path d="M13.89,230.144l0.073,2.719l5.252-0.09v0.396l-5.252,0.09c0,0.216,0,0.432,0.018,0.684
		c0.036,2.503,0.073,4.033,0.073,4.592c0,2.07-0.364,3.602-1.072,4.592c-0.728,0.972-2.036,1.8-3.962,2.502l-0.2-0.378
		c1.672-0.594,2.871-1.278,3.562-2.053c0.69-0.773,1.126-1.926,1.308-3.457c-0.581,1.225-1.508,1.854-2.78,1.854
		c-0.999,0-1.763-0.288-2.308-0.846c-0.545-0.576-0.818-1.314-0.818-2.215c0-0.828,0.255-1.53,0.764-2.106
		c0.563-0.666,1.345-0.99,2.362-0.99c1.345,0,2.29,0.63,2.799,1.891c-0.072-0.702-0.127-1.603-0.127-2.719l-0.036-1.351
		l-9.142,0.126v-0.396l9.142-0.126l-0.055-2.719H13.89z M8.855,236.698c-0.436,0.505-0.654,1.117-0.654,1.837
		c0,0.774,0.236,1.423,0.728,1.927c0.473,0.504,1.127,0.756,1.98,0.756c0.781,0,1.436-0.27,1.944-0.792
		c0.51-0.54,0.764-1.152,0.764-1.837c0-0.792-0.254-1.458-0.764-1.98c-0.509-0.54-1.145-0.792-1.944-0.792
		C10.037,235.816,9.364,236.104,8.855,236.698z"/>
</g>
</svg>
